<svg xmlns="http://www.w3.org/2000/svg" width="512" height="512" xml:space="preserve"><path d="M370.703 0H141.29C63.383 0 0 63.386 0 141.293v229.414C0 448.617 63.383 512 141.29 512h229.413C448.617 512 512 448.614 512 370.707V141.293C512.003 63.386 448.617 0 370.703 0zm95.873 370.707c0 52.862-43.007 95.866-95.87 95.866H141.29c-52.859.003-95.863-43.004-95.863-95.866V141.293c0-52.859 43.004-95.866 95.863-95.866h229.413c52.863 0 95.87 43.007 95.87 95.866v229.414z"/><path d="M256 124.077c-72.747 0-131.93 59.182-131.93 131.93 0 72.743 59.183 131.922 131.93 131.922 72.747 0 131.93-59.179 131.93-131.923 0-72.747-59.183-131.93-131.93-131.93zm0 218.422c-47.695 0-86.502-38.8-86.502-86.496 0-47.698 38.804-86.502 86.502-86.502 47.698 0 86.502 38.804 86.502 86.502 0 47.695-38.807 86.496-86.502 86.496zM393.462 85.557c-8.752 0-17.35 3.544-23.53 9.752-6.212 6.178-9.783 14.78-9.783 23.562 0 8.755 3.574 17.353 9.782 23.561 6.178 6.178 14.78 9.752 23.531 9.752 8.783 0 17.354-3.574 23.562-9.752 6.208-6.208 9.752-14.809 9.752-23.561 0-8.783-3.544-17.384-9.752-23.562-6.178-6.208-14.779-9.752-23.562-9.752z"/></svg>