<?xml version="1.0" encoding="UTF-8" standalone="no"?>
<!-- Created with Inkscape (http://www.inkscape.org/) -->

<svg
   width="9.000001"
   height="12.50018"
   viewBox="0 0 0.093750012 0.13021021"
   version="1.1"
   id="svg690"
   xml:space="preserve"
   inkscape:version="1.2 (dc2aedaf03, 2022-05-15)"
   sodipodi:docname="highlight.svg"
   inkscape:export-filename="dehero.dev-04.png"
   inkscape:export-xdpi="6528"
   inkscape:export-ydpi="6528"
   xmlns:inkscape="http://www.inkscape.org/namespaces/inkscape"
   xmlns:sodipodi="http://sodipodi.sourceforge.net/DTD/sodipodi-0.dtd"
   xmlns="http://www.w3.org/2000/svg"
   xmlns:svg="http://www.w3.org/2000/svg"><sodipodi:namedview
     id="namedview692"
     pagecolor="#ffffff"
     bordercolor="#666666"
     borderopacity="1.0"
     inkscape:showpageshadow="2"
     inkscape:pageopacity="0.0"
     inkscape:pagecheckerboard="0"
     inkscape:deskcolor="#d1d1d1"
     inkscape:document-units="px"
     showgrid="true"
     inkscape:zoom="45.254834"
     inkscape:cx="4.2094951"
     inkscape:cy="7.5351066"
     inkscape:window-width="1920"
     inkscape:window-height="1027"
     inkscape:window-x="-8"
     inkscape:window-y="-8"
     inkscape:window-maximized="1"
     inkscape:current-layer="layer1"><inkscape:grid
       type="xygrid"
       id="grid2263"
       spacingx="0.010416667"
       spacingy="0.010416667"
       originx="-0.03125063"
       originy="-0.010415017" /></sodipodi:namedview><defs
     id="defs687" /><g
     inkscape:label="Слой 1"
     inkscape:groupmode="layer"
     id="layer1"
     transform="translate(-0.03125063,-0.01041502)"><path
       id="path5103"
       style="fill:#784421;stroke-width:0.00984473;paint-order:fill markers stroke"
       d="M 0.0416673,0.05208323 0.07812564,0.0390624 0.1197923,0.05208323 0.07812564,0.07031223 Z"
       sodipodi:nodetypes="ccccc" /><path
       id="path5964"
       style="fill:#28170b;stroke-width:0.00984473;paint-order:fill markers stroke"
       d="m 0.04427147,0.05208323 0.03385417,-0.015625 v 0.0026042 L 0.04427147,0.0546874 Z"
       sodipodi:nodetypes="ccccc" /><path
       id="path5966"
       style="fill:#28170b;stroke-width:0.00984473;paint-order:fill markers stroke"
       d="M 0.07812564,0.0390624 V 0.0364582 l 0.03385416,0.015625 v 0.0026042 z"
       sodipodi:nodetypes="ccccc" /><path
       id="path2323"
       style="fill:#502d16;fill-opacity:1;stroke:none;stroke-width:0.0104167;paint-order:fill markers stroke"
       d="M 0.07761701,0.01041657 A 0.02083334,0.02083334 0 0 0 0.05729231,0.03124991 0.02083334,0.02083334 0 0 0 0.07812564,0.05208324 0.02083334,0.02083334 0 0 0 0.09895897,0.03124991 0.02083334,0.02083334 0 0 0 0.07812564,0.01041657 a 0.02083334,0.02083334 0 0 0 -5.0863e-4,0 z m 0,0.0078125 a 0.01302082,0.01302082 0 0 1 5.0863e-4,0 A 0.01302082,0.01302082 0 0 1 0.09114647,0.03124991 0.01302082,0.01302082 0 0 1 0.07812564,0.04427074 0.01302082,0.01302082 0 0 1 0.06510481,0.03124991 0.01302082,0.01302082 0 0 1 0.07761701,0.01822907 Z" /><path
       id="path6067"
       style="fill:#a05a2c;stroke-width:0.0114266;paint-order:fill markers stroke"
       d="M 0.0755215,0.0468749 H 0.0807298 V 0.05729157 H 0.0755215 Z"
       sodipodi:nodetypes="ccccc" /><path
       id="path6071"
       style="fill:#c87137;stroke-width:0.0114266;paint-order:fill markers stroke"
       d="m 0.07552147,0.0468749 h 0.0052083 l 3e-8,-0.0052083 H 0.0755215 Z"
       sodipodi:nodetypes="ccccc" /><path
       id="path1460"
       style="fill:#784421;stroke-width:0.0114266;paint-order:fill markers stroke"
       d="m 0.0468761,0.10942903 -0.0052088,0.00255 v 0.0104167 l 0.0052088,-0.00255 z"
       sodipodi:nodetypes="ccccc" /><path
       id="path1462"
       style="fill:#502d16;stroke-width:0.00932978;paint-order:fill markers stroke"
       d="m 0.0364593,0.10942903 0.005208,0.00255 v 0.0104167 l -0.005208,-0.00255 z"
       sodipodi:nodetypes="ccccc" /><path
       style="fill:#ffd42a;fill-opacity:1;stroke-width:0.0114266;paint-order:fill markers stroke"
       d="m 0.0416673,0.0624999 0.03124967,0.01562501 v 0.046875 L 0.0416673,0.10937491 Z"
       id="path1464"
       sodipodi:nodetypes="ccccc" /><path
       id="path1466"
       style="fill:#a05a2c;fill-opacity:0.501961;stroke:none;stroke-width:0.00974391;paint-order:fill markers stroke"
       d="m 0.04427152,0.06249929 v 0.04567515 l 0.01562512,0.007609 -1.7e-7,-0.04225651 h 0.002604 l 1.7e-7,0.04365999 0.01041616,0.005208 v 0.002604 L 0.0416673,0.10937402 v -0.002604 -0.04427134 z"
       sodipodi:nodetypes="cccccccccccc" /><path
       id="path1468"
       style="fill:#a05a2c;stroke-width:0.00970614;paint-order:fill markers stroke"
       d="m 0.03645964,0.05208318 0.041666,0.02343755 v 0.05989584 l -0.041666,-0.0234376 z m 0.0052077,0.01302088 V 0.1093749 L 0.07291667,0.125 l 3.4e-7,-0.0442709 z"
       sodipodi:nodetypes="cccccccccc" /><path
       id="path4652"
       style="fill:#502d16;stroke-width:0.0114266;paint-order:fill markers stroke"
       d="m 0.0729173,0.13020823 0.0052083,0.002604 v 0.007813 l -0.0052083,-0.002604 z"
       sodipodi:nodetypes="ccccc" /><path
       id="path1470"
       style="fill:#aa8800;stroke-width:0.00988892;paint-order:fill markers stroke"
       d="m 0.0416673,0.08593736 0.03124967,0.01562506 v 0.002604 L 0.0416673,0.08854156 Z"
       sodipodi:nodetypes="ccccc" /><path
       id="path1472"
       style="fill:#a05a2c;stroke-width:0.00710367;paint-order:fill markers stroke"
       d="m 0.0598963,0.06770823 h -0.005208 l 1.7e-7,0.05208333 h 0.005208 z"
       sodipodi:nodetypes="ccccc" /><path
       id="path2234"
       style="fill:#502d16;stroke-width:0.00988892;paint-order:fill markers stroke"
       d="m 0.03645897,0.11197906 0.04166667,0.0208333 v 0.002604 L 0.03645897,0.11458326 Z"
       sodipodi:nodetypes="ccccc" /><path
       id="path1006"
       style="fill:#502d16;stroke-width:0.00988892;paint-order:fill markers stroke"
       d="m 0.03125064,0.05208323 0.046875,0.0234375 v 0.002604 L 0.03125064,0.0546874 Z"
       sodipodi:nodetypes="ccccc" /><path
       id="path1109"
       style="fill:#502d16;stroke-width:0.0114266;paint-order:fill markers stroke"
       d="m 0.10937518,0.10942903 0.005209,0.00255 v 0.0104167 l -0.005209,-0.00255 z"
       sodipodi:nodetypes="ccccc" /><path
       id="path1111"
       style="fill:#784421;stroke-width:0.00932978;paint-order:fill markers stroke"
       d="m 0.11979198,0.10942903 -0.005208,0.00255 v 0.0104167 l 0.005208,-0.00255 z"
       sodipodi:nodetypes="ccccc" /><path
       id="path1117"
       style="fill:#c87137;stroke-width:0.00970614;paint-order:fill markers stroke"
       d="m 0.11979164,0.05208318 -0.041666,0.02343755 v 0.05989584 l 0.041666,-0.0234376 z m -0.005208,0.01302088 V 0.1093749 L 0.08333431,0.125 l -3.4e-7,-0.0442709 z"
       sodipodi:nodetypes="cccccccccc" /><path
       style="fill:#ffd42a;fill-opacity:1;stroke-width:0.0114266;paint-order:fill markers stroke"
       d="m 0.11458397,0.06510406 -0.03124967,0.01562501 10e-9,0.04427084 0.03124967,-0.015625 z"
       id="path1113"
       sodipodi:nodetypes="ccccc" /><path
       id="path4040"
       style="fill:#502d16;stroke-width:0.00984473;paint-order:fill markers stroke"
       d="M 0.07812564,0.03124993 0.03125063,0.05208323 0.0781253,0.07552059 0.12500064,0.05208323 Z m 0,0.0052083 0.03385416,0.015625 L 0.0781253,0.06770809 0.04427147,0.05208323 Z"
       sodipodi:nodetypes="cccccccccc" /><path
       id="path1119"
       style="fill:#784421;stroke-width:0.0114266;paint-order:fill markers stroke"
       d="m 0.08333398,0.13020823 -0.0052083,0.002604 v 0.007813 l 0.0052083,-0.002604 z"
       sodipodi:nodetypes="ccccc" /><path
       id="path1121"
       style="fill:#aa8800;stroke-width:0.00988892;paint-order:fill markers stroke"
       d="M 0.11458398,0.08593736 0.08333431,0.10156242 v 0.002604 L 0.11458398,0.08854156 Z"
       sodipodi:nodetypes="ccccc" /><path
       id="path1123"
       style="fill:#c87137;stroke-width:0.00710367;paint-order:fill markers stroke"
       d="m 0.09635498,0.06770823 h 0.005208 l -1.7e-7,0.05208333 h -0.005208 z"
       sodipodi:nodetypes="ccccc" /><path
       id="path1115"
       style="fill:#c87137;fill-opacity:0.439216;stroke:none;stroke-width:0.00974391;paint-order:fill markers stroke"
       d="m 0.11197976,0.06249929 v 0.04567515 l -0.0156251,0.007609 1.4e-7,-0.04547104 h -0.002604 l -1.4e-7,0.04687452 -0.01041616,0.005208 v 0.002604 L 0.114584,0.10937402 v -0.002604 -0.04427134 z"
       sodipodi:nodetypes="cccccccccccc" /><path
       id="path1125"
       style="fill:#784421;stroke-width:0.00988892;paint-order:fill markers stroke"
       d="m 0.11979231,0.11197906 -0.04166667,0.0208333 v 0.002604 l 0.04166667,-0.0208331 z"
       sodipodi:nodetypes="ccccc" /><path
       id="path1127"
       style="fill:#784421;stroke-width:0.00988892;paint-order:fill markers stroke"
       d="m 0.12500064,0.05208323 -0.046875,0.0234375 v 0.002604 l 0.046875,-0.02343733 z"
       sodipodi:nodetypes="ccccc" /></g></svg>
