<svg xmlns="http://www.w3.org/2000/svg" viewBox="0 0 64 64" id="lantern">
  <path fill="#ad712c" d="M21.14,21h0a5.42,5.42,0,0,1,2.31-4.6L32,11l8.56,5.38A5.43,5.43,0,0,1,42.86,21h0Z"></path>
  <rect width="26" height="4" x="19" y="21" fill="#e5a430" rx="2" ry="2"></rect>
  <path fill="#ad712c" d="M42.86,49h0a5.42,5.42,0,0,1-2.31,4.6L32,59l-8.56-5.38A5.43,5.43,0,0,1,21.14,49h0Z"></path>
  <rect width="26" height="4" x="19" y="45" fill="#e5a430" rx="2" ry="2" transform="rotate(-180 32 47)"></rect>
  <rect width="20" height="20" x="22" y="25" fill="#f6d445"></rect>
  <path fill="#e5a430" d="M42,46a1,1,0,0,1-1-1c0-9.21-4.12-17-9-17s-9,7.79-9,17a1,1,0,0,1-2,0c0-10.65,4.83-19,11-19s11,8.35,11,19A1,1,0,0,1,42,46Z"></path>
  <path fill="#e5a430" d="M32,46a1,1,0,0,1-1-1c0-6.75,2-12.83,5.28-16.27A7.91,7.91,0,0,1,42,26a1,1,0,0,1,0,2,6,6,0,0,0-4.28,2.11C34.81,33.14,33,38.85,33,45A1,1,0,0,1,32,46Z"></path>
  <path fill="#e5a430" d="M32,46a1,1,0,0,1-1-1c0-6.15-1.81-11.86-4.72-14.89A6,6,0,0,0,22,28a1,1,0,0,1,0-2,7.91,7.91,0,0,1,5.72,2.73C31,32.17,33,38.25,33,45A1,1,0,0,1,32,46Z"></path>
  <path fill="#f6d445" d="M55 35H47a1 1 0 0 1 0-2h8a1 1 0 0 1 0 2zM59 35H58a1 1 0 0 1 0-2h1a1 1 0 0 1 0 2zM17 35H9a1 1 0 0 1 0-2h8a1 1 0 0 1 0 2zM6 35H5a1 1 0 0 1 0-2H6a1 1 0 0 1 0 2zM46 28.5a1 1 0 0 1-.5-1.87l6.93-4a1 1 0 1 1 1 1.74l-6.93 4A1 1 0 0 1 46 28.5zM55.52 23a1 1 0 0 1-.5-1.87l.86-.5a1 1 0 1 1 1 1.74l-.86.5A1 1 0 0 1 55.52 23zM11.08 44.5a1 1 0 0 1-.5-1.87l6.93-4a1 1 0 1 1 1 1.74l-6.93 4A1 1 0 0 1 11.08 44.5zM7.62 46.5a1 1 0 0 1-.5-1.87l.86-.5a1 1 0 0 1 1 1.74l-.86.5A1 1 0 0 1 7.62 46.5z"></path>
  <path fill="#f6d445" d="M46 28.5a1 1 0 0 1-.5-1.87l6.93-4a1 1 0 1 1 1 1.74l-6.93 4A1 1 0 0 1 46 28.5zM55.52 23a1 1 0 0 1-.5-1.87l.86-.5a1 1 0 1 1 1 1.74l-.86.5A1 1 0 0 1 55.52 23zM11.08 44.5a1 1 0 0 1-.5-1.87l6.93-4a1 1 0 1 1 1 1.74l-6.93 4A1 1 0 0 1 11.08 44.5zM7.62 46.5a1 1 0 0 1-.5-1.87l.86-.5a1 1 0 0 1 1 1.74l-.86.5A1 1 0 0 1 7.62 46.5zM18 28.5a1 1 0 0 1-.5-.13l-6.93-4a1 1 0 1 1 1-1.74l6.93 4A1 1 0 0 1 18 28.5zM8.48 23a1 1 0 0 1-.5-.13l-.86-.5a1 1 0 0 1 1-1.74l.86.5A1 1 0 0 1 8.48 23zM52.92 44.5a1 1 0 0 1-.5-.13l-6.93-4a1 1 0 0 1 1-1.74l6.93 4a1 1 0 0 1-.5 1.87zM56.38 46.5a1 1 0 0 1-.5-.13l-.86-.5a1 1 0 0 1 1-1.74l.86.5a1 1 0 0 1-.5 1.87z"></path>
  <path fill="#112644" d="M24,22H21.14a1,1,0,0,1-1-1,6.38,6.38,0,0,1,2.78-5.44l8.52-5.39a1,1,0,0,1,1.06,0l4.44,2.79a1,1,0,1,1-1.06,1.7L32,12.18l-8,5.05A4.14,4.14,0,0,0,22.23,20H24a1,1,0,0,1,0,2Z"></path>
  <path fill="#112644" d="M42.86,22H28a1,1,0,0,1,0-2H41.76A4.23,4.23,0,0,0,40,17.23l-.75-.47a1,1,0,1,1,1.06-1.7l.75.47A6.42,6.42,0,0,1,43.86,21a1,1,0,0,1-1,1Z"></path>
  <path fill="#112644" d="M43 26H21a3 3 0 0 1-3-3 3 3 0 0 1 3-3h3a1 1 0 0 1 0 2H21a.93.93 0 0 0-.69.29A1 1 0 0 0 20 23a1 1 0 0 0 1 1H43a.93.93 0 0 0 .69-.29A1 1 0 0 0 44 23a1 1 0 0 0-1-1H28a1 1 0 0 1 0-2H43a3 3 0 0 1 3 3 3 3 0 0 1-3 3zM32 60a1 1 0 0 1-.53-.15l-4.08-2.56a1 1 0 1 1 1.06-1.7L32 57.82l8-5A4.14 4.14 0 0 0 41.77 50L22.24 50A4.23 4.23 0 0 0 24 52.77l1.29.81a1 1 0 0 1-1.06 1.7l-1.29-.81A6.42 6.42 0 0 1 20.14 49a1 1 0 0 1 .29-.71 1.05 1.05 0 0 1 .71-.29h0l21.72 0a1 1 0 0 1 1 1 6.38 6.38 0 0 1-2.78 5.44l-8.52 5.39A1 1 0 0 1 32 60z"></path>
  <path fill="#112644" d="M43,50H21a3,3,0,0,1-3-3,3,3,0,0,1,3-3H35a1,1,0,0,1,0,2H21a.93.93,0,0,0-.69.29A1,1,0,0,0,20,47a1,1,0,0,0,1,1H43a.93.93,0,0,0,.69-.29A1,1,0,0,0,44,47a1,1,0,0,0-1-1H39a1,1,0,0,1,0-2h4a3,3,0,0,1,3,3,3,3,0,0,1-3,3Z"></path>
  <path fill="#112644" d="M42 46H39a1 1 0 0 1 0-2h2V26H23V44H35a1 1 0 0 1 0 2H22a1 1 0 0 1-1-1V25a1 1 0 0 1 1-1H42a1 1 0 0 1 1 1V45A1 1 0 0 1 42 46zM32 12a4 4 0 1 1 4-4A4 4 0 0 1 32 12zm0-6a2 2 0 1 0 2 2A2 2 0 0 0 32 6z"></path>
</svg>
