<svg xmlns="http://www.w3.org/2000/svg" width="512" height="512" xml:space="preserve"><path d="M484.766 0H27.234C12.19 0 0 12.195 0 27.234v457.532C0 499.805 12.19 512 27.234 512h457.532C499.81 512 512 499.805 512 484.766V27.234C512 12.195 499.81 0 484.766 0zM368.264 375.149c-84.997 0-114.486-38.324-130.2-85.983l-15.725-49.136c-11.787-35.867-25.54-63.875-68.788-63.875-29.98 0-60.427 21.619-60.427 82.051 0 47.164 24.075 76.653 57.97 76.653 38.33 0 63.886-28.498 63.886-28.498l15.725 42.747s-26.542 26.035-82.062 26.035c-68.776 0-107.106-40.284-107.106-114.97 0-77.623 38.33-123.327 110.554-123.327 65.351 0 98.277 23.584 118.904 87.459l16.22 49.13c11.788 35.867 32.426 61.914 82.046 61.914 33.422 0 51.086-7.375 51.086-25.55 0-14.25-8.334-24.566-33.395-30.465l-33.432-7.854c-40.759-9.826-56.99-30.96-56.99-64.365 0-53.559 43.242-70.264 87.465-70.264 50.127 0 80.585 18.182 84.518 62.404l-49.136 5.894c-1.966-21.129-14.734-29.969-38.318-29.969-21.635 0-34.876 9.826-34.876 26.532 0 14.739 6.373 23.584 28.002 28.497l31.444 6.88c42.257 9.826 64.845 30.464 64.845 70.258-.006 49.136-41.27 67.802-102.21 67.802z"/></svg>