<svg xmlns="http://www.w3.org/2000/svg" xml:space="preserve" width="512" height="512" version="1.1" style="clip-rule:evenodd;fill-rule:evenodd;image-rendering:optimizeQuality;shape-rendering:geometricPrecision;text-rendering:geometricPrecision" id="svg2">
    <defs id="defs4"></defs>
    <path d="M372.807-.12c-2.268-.02-4.431.184-6.467.638-20.995 4.806-31.62 9.866-47.808 19.73-4.048 2.53-6.324 5.313-11.636 5.06-2.024-.253-5.06-1.012-7.083-1.518-12.395-2.276-26.813-3.794-39.461-3.794-32.378.253-58.685 4.553-87.27 15.177-13.659 5.06-6.83 4.047-25.548-1.518-23.019-6.576-63.744-12.647-85.245 6.577C41.799 58.951-4.24 114.854.315 149.51c2.276 15.936 11.889 35.16 20.236 48.061 8.6 13.913 5.312 7.842 3.035 25.295-4.047 31.114-1.517 64.25 6.324 94.1 7.589 28.836 11.13 13.406 2.783 37.437-7.336 21.754-12.648 51.603-7.336 74.622 4.3 18.212 18.466 28.836 29.849 38.702 17.454 15.177 59.444 48.82 91.57 43.76 27.824-4.552 53.373-25.042 57.42-26.812 2.277-.76 29.849 4.806 45.532 4.806 23.778 0 42.496-1.265 62.48-6.577 9.106-2.277 17.707-4.806 25.801-7.842 8.854-3.541 10.118.506 26.307 5.06 17.96 5.058 40.473 8.094 61.721 4.806 22.513-3.289 41.738-28.837 55.144-46.797 32.379-43.761 44.015-70.321 11.383-121.165-7.841-11.89-7.588-8.095-4.3-24.537 5.565-29.09 2.783-67.033-3.794-93.846-11.13-44.773-12.648-15.43-2.277-52.615 4.806-17.2 8.095-41.737 4.3-60.962-3.794-18.465-18.212-29.595-29.342-39.46C440.827 31.32 399.567.111 372.807-.12zM257.98 63.537c7.304.032 14.64.474 21.849 1.486 9.612 1.265 31.366 4.553 37.437 9.106-.506 4.047-1.77 2.783-6.577 8.854-24.03 28.583-40.726 68.803-43.002 70.827-7.083-1.77-13.407-8.6-20.995-9.612 1.77 9.359 20.995 83.475 24.283 88.028 8.095-2.277 77.657-29.596 80.946-31.872-5.565-5.818-16.695-8.095-23.272-13.66 3.541-17.96 45.785-66.274 57.168-72.598 3.794-4.553 17.2-12.648 23.524-15.683 5.06-2.53 9.36-4.047 14.672-5.565 6.577-1.518 11.383-.506 17.96-1.77.505.505 1.264-.507 1.77 4.805 1.012 10.624-.506 28.331-3.541 38.702-2.024 6.324-3.795 12.395-6.071 18.213-1.77 4.553-6.324 12.142-5.818 16.442 3.288 13.407 17.2 32.884 18.719 70.069.758 18.971.253 60.203-9.613 76.139-3.288-1.77-13.153-11.13-18.212-14.924-14.166-10.372-45.026-29.09-60.71-33.643 2.024-6.577 9.36-16.442 10.372-22.26l-88.029 23.524c0 2.277 26.56 73.61 31.114 82.717 2.782-2.53 11.636-19.984 13.66-24.031 22.006 6.83 58.432 38.702 72.597 56.915 13.154 13.153 22.766 33.137 22.766 53.12v.76l.506 2.782c-8.853 5.817-33.39 1.011-43.255-1.771a192.072 192.072 0 0 1-18.213-6.071c-4.047-1.518-13.912-6.324-17.2-6.577-4.048 1.012-10.878 4.806-15.431 6.577-5.312 2.277-10.877 3.794-16.695 5.565-24.79 7.589-53.373 9.612-79.428 6.324-6.577-1.012-12.395-2.024-18.718-3.542-6.071-1.264-11.89-3.54-17.201-4.553 3.288-5.818 9.612-11.383 13.912-17.454 20.237-28.33 27.066-49.832 34.15-60.456 7.588 2.277 13.659 7.842 20.994 10.371-.253-6.576-3.541-15.936-5.312-22.766-2.023-7.335-3.794-14.67-6.07-21.5-4.554-13.66-7.336-29.85-11.637-44.268-5.312.76-75.127 28.078-82.21 31.62 3.036 3.035 19.478 11.635 23.525 13.406-4.553 19.984-42.75 62.733-54.891 71.333-5.565 5.312-16.695 13.407-25.043 17.201-20.742 9.36-21.754 5.565-30.101 6.83-.047.01-.072.013-.118.021-.4.124-.902.274-1.653.485l-1.77 1.012c-5.06-7.336.252-38.197 2.276-45.026 3.541-11.636 8.853-26.814 13.66-35.667-.76-7.589-14.419-25.548-18.972-67.286-3.289-32.125 1.012-48.314 7.841-76.898 11.636 7.083 17.707 19.224 58.18 39.46 5.565 2.783 17.707 7.59 21.501 10.878l-10.371 20.742 88.534-22.766c-.253-3.794-28.584-77.15-31.62-82.716-4.805 5.312-8.6 17.454-13.659 23.525-17.707-2.277-68.55-47.556-73.61-58.18-5.312-4.047-11.888-16.189-15.43-23.272-5.059-10.624-6.07-18.212-5.818-32.378 9.36-3.035 32.631 0 41.232 2.277 5.565 1.518 11.383 3.541 16.695 5.312 5.059 1.77 10.624 4.806 15.43 5.818 4.047-1.012 19.984-9.107 33.137-13.407 10.877-3.541 25.296-7.083 38.196-8.094 7.083-.633 14.356-1.012 21.66-.98z" id="path4147"/>
</svg>