<svg xmlns="http://www.w3.org/2000/svg" width="512" height="512" style="enable-background:new 0 0 512 512" xml:space="preserve"><path d="M151.961 418.005c13.572 0 26.893-6.567 34.986-18.708 12.867-19.301 7.651-45.377-11.649-58.244l-33.037-22.022a67.394 67.394 0 0 1 17.739-2.38c37.196 0 67.348 30.152 67.348 67.351s-30.153 67.349-67.349 67.349c-36.202 0-65.722-28.564-67.274-64.387l35.977 23.984a41.808 41.808 0 0 0 23.259 7.057zM426.67 0C473.607 0 512 38.406 512 85.344v341.314C512 473.626 473.607 512 426.67 512H85.344C38.406 512 0 473.625 0 426.659V325.145l60.667 40.444c-5.826 31.587 3.469 65.415 27.899 89.845 39.452 39.452 103.415 39.452 142.868 0 24.234-24.231 33.575-57.715 28.039-89.082L384 254.858v-.001c23.123-3.319 45.408-13.872 63.197-31.661 43.736-43.738 43.736-114.653 0-158.392-43.74-43.739-114.654-43.739-158.393 0-17.789 17.789-28.344 40.073-31.662 63.196L154.796 283.115c-15.924.816-31.689 5.382-45.863 13.695L0 224.189V85.344C0 38.406 38.405 0 85.343 0H426.67zM448 144c0-44.183-35.816-80-80-80s-80 35.817-80 80 35.816 80 80 80 80-35.817 80-80zm-128 0c0-26.51 21.49-48 48-48s48 21.49 48 48-21.49 48-48 48-48-21.49-48-48z"/></svg>