<svg xmlns="http://www.w3.org/2000/svg" width="512" height="512" xml:space="preserve"><path d="M512 97.468c-20.143 8.664-40.29 14.074-60.424 16.248 22.74-13.645 38.123-32.92 46.137-57.826-20.802 12.342-42.998 20.786-66.603 25.337-20.794-22.091-46.346-33.141-76.674-33.141-29.019 0-53.76 10.232-74.236 30.7-20.464 20.467-30.697 45.21-30.697 74.23 0 7.796.865 15.812 2.6 24.041-42.885-2.165-83.114-12.94-120.694-32.324C93.83 125.347 61.939 99.52 35.734 67.25c-9.53 16.24-14.296 33.894-14.296 52.953 0 17.976 4.222 34.655 12.674 50.033 8.445 15.375 19.818 27.827 34.113 37.358-16.896-.651-32.706-5.092-47.431-13.323v1.3c0 25.342 7.96 47.59 23.876 66.764 15.919 19.171 36.008 31.239 60.264 36.223a108.717 108.717 0 0 1-27.616 3.57c-6.065 0-12.671-.54-19.817-1.616 6.713 21.005 19.06 38.27 37.033 51.814 17.978 13.536 38.337 20.514 61.079 20.958-38.117 29.883-81.541 44.824-130.272 44.824-9.315 0-17.76-.424-25.341-1.296 48.732 31.401 102.444 47.102 161.138 47.102 37.253 0 72.231-5.895 104.925-17.702 32.71-11.799 60.646-27.613 83.822-47.434 23.17-19.816 43.155-42.612 59.937-68.384 16.784-25.774 29.287-52.681 37.524-80.728 8.227-28.052 12.344-56.148 12.344-84.308 0-6.065-.109-10.611-.326-13.645 20.58-14.937 38.123-33.025 52.636-54.245z"/></svg>