<svg xmlns="http://www.w3.org/2000/svg" width="512" height="512" xml:space="preserve"><path d="M509.284 373.756c-.62-1.336-1.198-2.445-1.735-3.333-8.883-15.999-25.859-35.636-50.916-58.918l-.53-.533-.265-.261-.268-.268h-.269c-11.372-10.841-18.574-18.13-21.59-21.863-5.518-7.109-6.754-14.305-3.738-21.596 2.13-5.509 10.134-17.143 23.992-34.917 7.29-9.42 13.063-16.97 17.326-22.658 30.747-40.877 44.078-66.998 39.988-78.373l-1.588-2.659c-1.067-1.6-3.822-3.064-8.26-4.4-4.448-1.332-10.133-1.552-17.066-.664l-76.772.53c-1.243-.44-3.02-.4-5.333.135l-3.467.802-1.336.667-1.06.802c-.89.53-1.867 1.464-2.934 2.797-1.062 1.329-1.95 2.888-2.66 4.665-8.358 21.503-17.86 41.497-28.526 59.978-6.576 11.02-12.615 20.571-18.13 28.658-5.509 8.084-10.13 14.04-13.859 17.858-3.734 3.821-7.105 6.883-10.132 9.196-3.022 2.313-5.33 3.291-6.927 2.933a195.34 195.34 0 0 1-4.537-1.067c-2.486-1.6-4.486-3.777-5.994-6.531-1.515-2.754-2.534-6.221-3.068-10.398-.53-4.179-.844-7.773-.933-10.796-.083-3.018-.045-7.288.135-12.797.185-5.512.268-9.24.268-11.196 0-6.754.132-14.085.396-21.993.269-7.908.487-14.174.669-18.79.18-4.622.265-9.51.265-14.664s-.314-9.196-.934-12.13a41.495 41.495 0 0 0-2.792-8.531c-1.246-2.754-3.07-4.885-5.465-6.398-2.398-1.51-5.38-2.71-8.93-3.6-9.42-2.132-21.415-3.285-35.99-3.464-33.054-.355-54.293 1.78-63.712 6.4-3.732 1.953-7.11 4.62-10.129 7.995-3.2 3.91-3.646 6.045-1.336 6.396 10.665 1.598 18.215 5.42 22.658 11.461l1.601 3.202c1.246 2.31 2.49 6.4 3.734 12.263 1.243 5.864 2.045 12.35 2.398 19.456.887 12.975.887 24.082 0 33.322-.89 9.244-1.73 16.44-2.532 21.594s-2.001 9.33-3.6 12.528c-1.6 3.199-2.666 5.154-3.2 5.864-.533.71-.978 1.156-1.33 1.332a19.97 19.97 0 0 1-7.2 1.336c-2.49 0-5.51-1.245-9.063-3.735-3.553-2.489-7.24-5.908-11.061-10.263-3.822-4.356-8.132-10.442-12.932-18.261-4.796-7.819-9.773-17.06-14.927-27.722l-4.264-7.733c-2.666-4.975-6.307-12.218-10.928-21.724-4.624-9.51-8.71-18.709-12.263-27.595-1.42-3.732-3.554-6.573-6.397-8.528l-1.334-.802c-.887-.71-2.311-1.463-4.264-2.266a28.292 28.292 0 0 0-6.132-1.731l-73.042.53c-7.464 0-12.528 1.691-15.195 5.068l-1.067 1.598c-.533.89-.802 2.31-.802 4.267 0 1.955.533 4.354 1.6 7.196 10.663 25.06 22.259 49.229 34.787 72.51 12.528 23.28 23.415 42.033 32.654 56.242 9.24 14.22 18.66 27.64 28.257 40.254 9.598 12.618 15.95 20.705 19.059 24.258 3.112 3.56 5.556 6.22 7.333 7.997l6.666 6.397c4.265 4.266 10.528 9.375 18.792 15.327 8.266 5.956 17.417 11.82 27.458 17.6 10.043 5.771 21.726 10.481 35.057 14.123 13.328 3.646 26.3 5.11 38.92 4.404h30.657c6.217-.537 10.927-2.492 14.13-5.867l1.06-1.336c.713-1.06 1.38-2.709 1.997-4.926.624-2.221.934-4.669.934-7.33-.182-7.64.4-14.527 1.729-20.658 1.329-6.128 2.843-10.75 4.537-13.861 1.692-3.11 3.603-5.733 5.729-7.86 2.13-2.132 3.649-3.423 4.54-3.867.885-.448 1.591-.751 2.125-.933 4.265-1.421 9.284-.045 15.066 4.135 5.776 4.177 11.195 9.333 16.263 15.462 5.065 6.135 11.15 13.017 18.258 20.657 7.112 7.643 13.33 13.325 18.66 17.063l5.33 3.198c3.559 2.135 8.18 4.09 13.868 5.867 5.677 1.776 10.652 2.22 14.924 1.332l68.24-1.064c6.75 0 12.002-1.118 15.728-3.335 3.733-2.222 5.95-4.669 6.665-7.33.714-2.666.752-5.689.136-9.069-.632-3.371-1.255-5.729-1.875-7.061z"/></svg>