<svg xmlns="http://www.w3.org/2000/svg" xml:space="preserve" width="512" height="512" style="clip-rule:evenodd;fill-rule:evenodd;image-rendering:optimizeQuality;shape-rendering:geometricPrecision;text-rendering:geometricPrecision" viewBox="0 0 502.541 502.667"><path class="fil0" d="M45.942 137.1c8.225-17.272 39.89-34.133 55.928-12.749 24.674 32.899-46.47 138.586-46.88 207.673 0 53.46 43.59 85.536 98.284 70.732 25.085-6.99 39.89-20.973 53.049-34.543 12.337-12.749 27.964-32.488 35.777-51.816l2.879 8.636c.411 2.879.411 5.346 1.234 8.636.822 5.757 2.878 11.926 4.523 16.86 21.384 57.162 87.593 73.611 140.642 32.9 15.627-11.927 30.02-28.376 41.945-45.648 23.03-33.31 41.946-71.965 55.928-117.201 9.87-33.31 33.721-131.595-24.674-122.136-11.514 2.056-20.973 7.813-27.964 14.393-22.617 21.384 14.805 24.263 6.58 106.92C425.51 394.943 311.187 425.374 302.14 343.54c-3.29-31.665 4.524-85.537 12.337-117.613 3.701-16.038 6.169-18.094 12.337-31.254 9.047-18.094 19.328-40.712 25.085-60.862 4.524-16.86 2.057-23.852-13.57-27.142-48.526-10.28-60.452 26.73-71.555 59.63-20.561 59.217-13.57 88.825-37.422 136.117-16.038 31.254-48.114 89.649-92.939 82.247-27.552-4.524-27.141-34.132-20.973-61.685 10.281-46.47 34.133-83.07 43.18-130.36 19.74-99.93-83.07-119.258-135.296-71.144C11.81 132.576-7.518 157.66 2.763 183.158c15.626 39.89 74.844 18.094 63.33-22.618-4.935-16.45-12.749-15.216-20.15-23.44z" style="fill:#231e20"/></svg>